#!OML:ASF H:\ManfredObstacles\Project 1\Capture day 2\Session 1\male.ASF
:FULLY-SPECIFIED
:DEGREES
243
root 2.41615 15.3865 -6.97229 -178.602 0.478822 -183.333
lowerback 8.8282 -1.11133 -5.78748
upperback 8.12786 -0.79777 -0.393633
thorax 3.66476 -0.246381 2.90064
lowerneck -27.5645 -1.71775 3.23731
upperneck 44.7604 1.94386 -1.93236
head 25.1136 2.42621 -0.555492
rclavicle 5.46658e-015 -1.19271e-015
rhumerus -58.1256 -10.4326 -74.2772
rradius 54.528
rwrist 9.75452
rhand -5.32373 -14.4012
rfingers 7.12502
rthumb 20.4823 -43.3408
lclavicle 5.46658e-015 -1.19271e-015
lhumerus -63.0631 -19.3718 84.6314
lradius 64.2316
lwrist -21.7031
lhand -10.099 11.7627
lfingers 7.12502
lthumb 15.8883 41.1309
rfemur -36.5215 1.38586 18.0338
rtibia 61.9221
rfoot 4.48017 -9.75938
rtoes -28.0361
lfemur -34.5142 -0.0378848 -26.7099
ltibia 54.1181
lfoot 7.36537 10.7734
ltoes -11.9186
244
root 2.42103 15.0838 -7.22159 -179.142 0.624615 -183.483
lowerback 8.88032 -1.04203 -6.04476
upperback 8.00971 -0.745464 -0.435804
thorax 3.51319 -0.231821 2.99837
lowerneck -27.6789 -1.68299 3.2547
upperneck 44.6517 1.88136 -1.91446
head 25.0442 2.39677 -0.571026
rclavicle -1.55301e-014 -1.63003e-014
rhumerus -56.5903 -11.552 -74.47
rradius 53.3823
rwrist 10.0846
rhand -5.70661 -15.1898
rfingers 7.12502
rthumb 20.1144 -44.1685
lclavicle -1.55301e-014 -1.63003e-014
lhumerus -61.3476 -17.6026 83.9908
lradius 63.3791
lwrist -21.878
lhand -10.3829 12.7693
lfingers 7.12502
lthumb 15.6149 42.159
rfemur -36.064 1.22736 18.0136
rtibia 65.228
rfoot -2.0319 -11.1919
rtoes -26.7602
lfemur -34.2452 0.0563295 -27.114
ltibia 57.4114
lfoot 3.69758 15.1197
ltoes -11.4756
245
root 2.42399 14.8134 -7.46773 -179.322 0.920147 -183.623
lowerback 8.65744 -0.941779 -6.30512
upperback 7.80634 -0.664002 -0.472531
thorax 3.41804 -0.2141 3.09912
lowerneck -27.8616 -1.59623 3.34075
upperneck 44.4974 1.86727 -1.96551
head 24.9642 2.37867 -0.629826
rclavicle -2.88238e-015 -6.11263e-015
rhumerus -54.7479 -12.78 -74.5948
rradius 52.574
rwrist 8.05012
rhand -5.21724 -16.3115
rfingers 7.12502
rthumb 20.5847 -45.24
lclavicle -2.88238e-015 -6.11263e-015
lhumerus -59.5904 -15.6584 83.3359
lradius 62.6301
lwrist -22.0592
lhand -10.7791 13.85
lfingers 7.12502
lthumb 15.2333 43.2691
rfemur -35.8292 1.07673 18.0376
rtibia 68.1225
rfoot -7.18298 -12.7661
rtoes -25.8971
lfemur -34.0596 0.206461 -27.5042
ltibia 60.2426
lfoot 0.021193 19.3247
ltoes -9.87412
246
root 2.42358 14.5859 -7.71077 -179.186 1.33246 -183.704
lowerback 8.21325 -0.829714 -6.47771
upperback 7.51958 -0.571815 -0.502232
thorax 3.35083 -0.195844 3.15592
lowerneck -28.1333 -1.48603 3.43348
upperneck 44.3289 1.86868 -2.02376
head 24.9107 2.35981 -0.691373
rclavicle -2.23633e-016 -5.96354e-016
rhumerus -52.7284 -14.1977 -74.5431
rradius 52.6793
rwrist 1.5111
rhand -3.35998 -18.6013
rfingers 7.12502
rthumb 22.3684 -47.3263
lclavicle -2.23633e-016 -5.96354e-016
lhumerus -57.9113 -13.6138 82.6983
lradius 62.0406
lwrist -22.2758
lhand -11.2858 14.884
lfingers 7.12502
lthumb 14.7451 44.3395
rfemur -35.7874 0.900719 18.1547
rtibia 70.537
rfoot -11.0441 -14.3958
rtoes -25.5144
lfemur -33.9446 0.376351 -27.8261
ltibia 62.5664
lfoot -3.46884 23.0903
ltoes -8.08755
247
root 2.41908 14.3962 -7.94659 -178.814 1.80012 -183.722
lowerback 7.70155 -0.718723 -6.51902
upperback 7.15135 -0.485739 -0.53706
thorax 3.23062 -0.177075 3.13445
lowerneck -28.4378 -1.35073 3.57975
upperneck 44.1453 1.87741 -2.10129
head 24.8582 2.34729 -0.773484
rclavicle 5.49143e-015 -1.5704e-014
rhumerus -50.7722 -15.8675 -74.2729
rradius 53.7701
rwrist -7.97863
rhand -1.1068 -22.8715
rfingers 7.12502
rthumb 24.5298 -51.3203
lclavicle 5.49143e-015 -1.5704e-014
lhumerus -56.3746 -11.5836 82.1171
lradius 61.6584
lwrist -22.4527
lhand -11.8315 15.7774
lfingers 7.12502
lthumb 14.2193 45.2706
rfemur -35.87 0.691889 18.3637
rtibia 72.5684
rfoot -13.7501 -16.0345
rtoes -25.3644
lfemur -33.9568 0.488816 -28.08
ltibia 64.5144
lfoot -6.09658 26.3272
ltoes -6.78151
248
root 2.41137 14.2409 -8.17189 -178.307 2.26739 -183.752
lowerback 7.23675 -0.613715 -6.49884
upperback 6.73996 -0.409019 -0.601043
thorax 3.03917 -0.156449 3.04981
lowerneck -28.8193 -1.22173 3.6897
upperneck 43.9635 1.84947 -2.11451
head 24.8356 2.32017 -0.822275
rclavicle 9.6659e-015 3.97569e-015
rhumerus -49.0609 -17.6559 -73.9743
rradius 55.2749
rwrist -16.3428
rhand 0.233655 -27.9556
rfingers 7.12502
rthumb 25.8142 -56.224
lclavicle 9.6659e-015 3.97569e-015
lhumerus -54.9464 -9.69157 81.6355
lradius 61.4844
lwrist -22.5477
lhand -12.3678 16.4503
lfingers 7.12502
lthumb 13.7025 45.9792
rfemur -36.1236 0.505434 18.5605
rtibia 74.3907
rfoot -15.4872 -17.5528
rtoes -25.5114
lfemur -34.1482 0.469827 -28.3429
ltibia 66.2787
lfoot -7.66497 28.9446
ltoes -6.117
249
root 2.40138 14.1114 -8.38321 -177.782 2.69096 -183.698
lowerback 6.94347 -0.519149 -6.31787
upperback 6.33764 -0.340481 -0.674921
thorax 2.76127 -0.126761 2.86704
lowerneck -29.253 -1.12015 3.74412
upperneck 43.7737 1.75096 -2.04596
head 24.8178 2.26536 -0.83435
rclavicle 7.77745e-015 7.55382e-015
rhumerus -47.5746 -19.0602 -74.2092
rradius 56.3302
rwrist -20.2429
rhand 0.496583 -30.9071
rfingers 7.12502
rthumb 26.0659 -59.1387
lclavicle 7.77745e-015 7.55382e-015
lhumerus -53.5456 -8.08451 81.318
lradius 61.4835
lwrist -22.4093
lhand -12.858 16.9106
lfingers 7.12502
lthumb 13.23 46.4708
rfemur -36.5233 0.424865 18.8535
rtibia 76.1665
rfoot -16.3266 -18.9631
rtoes -26.0166
lfemur -34.5521 0.292731 -28.501
ltibia 68.0784
lfoot -8.25893 30.9463
ltoes -6.10255
250
root 2.39021 14.0023 -8.57911 -177.371 3.07085 -183.711
lowerback 6.94513 -0.414255 -6.15208
upperback 5.98975 -0.255346 -0.792556
thorax 2.3791 -0.0779534 2.64838
lowerneck -29.7558 -1.043 3.77076
upperneck 43.5394 1.58032 -1.94981
head 24.7769 2.17595 -0.849302
rclavicle 1.93815e-015 -1.78906e-014
rhumerus -46.2337 -19.701 -75.2701
rradius 56.6661
rwrist -19.4561
rhand 0.0415105 -30.4034
rfingers 7.12502
rthumb 25.6301 -58.6984
lclavicle 1.93815e-015 -1.78906e-014
lhumerus -52.083 -6.88833 81.2309
lradius 61.604
lwrist -21.9867
lhand -13.3056 17.216
lfingers 7.12502
lthumb 12.7986 46.8037
rfemur -37.0226 0.480196 19.0524
rtibia 78.0167
rfoot -16.3714 -20.1069
rtoes -26.6037
lfemur -35.0461 -0.0123407 -28.7205
ltibia 69.9717
lfoot -8.07429 32.3482
ltoes -6.65294
251
root 2.37959 13.9093 -8.75897 -177.139 3.416 -183.698
lowerback 7.28075 -0.289067 -5.95904
upperback 5.72982 -0.138605 -0.906073
thorax 1.90447 -0.00300792 2.41777
lowerneck -30.3263 -0.99004 3.77412
upperneck 43.2526 1.34887 -1.84995
head 24.7068 2.05322 -0.87912
rclavicle -1.07841e-014 -7.55382e-015
rhumerus -44.9785 -19.4783 -77.0351
rradius 56.2426
rwrist -14.3281
rhand -1.38051 -26.7353
rfingers 7.12502
rthumb 24.2674 -55.2195
lclavicle -1.07841e-014 -7.55382e-015
lhumerus -50.5084 -6.16815 81.4294
lradius 61.7914
lwrist -21.3596
lhand -13.7775 17.4513
lfingers 7.12502
lthumb 12.3437 47.0669
rfemur -37.5779 0.725162 19.2552
rtibia 79.9564
rfoot -15.7952 -20.8896
rtoes -27.2221
lfemur -35.5266 -0.35149 -28.8933
ltibia 71.9439
lfoot -7.5109 33.1826
ltoes -7.54794
252
root 2.37023 13.835 -8.92755 -177.061 3.74514 -183.6
lowerback 7.8532 -0.137252 -5.70765
upperback 5.56062 0.0225831 -0.978083
thorax 1.39319 0.100223 2.19316
lowerneck -30.9177 -0.976512 3.70954
upperneck 42.9152 1.07553 -1.7491
head 24.5917 1.89751 -0.910523
rclavicle 3.27995e-015 6.55989e-015
rhumerus -43.8715 -18.5439 -79.0923
rradius 55.2797
rwrist -5.35889
rhand -4.34374 -21.5539
rfingers 7.12502
rthumb 21.4238 -50.3893
lclavicle 3.27995e-015 6.55989e-015
lhumerus -48.8154 -5.95872 81.9267
lradius 62.0093
lwrist -20.7166
lhand -14.2613 17.6913
lfingers 7.12502
lthumb 11.8771 47.3344
rfemur -38.1387 1.1754 19.5239
rtibia 81.9018
rfoot -14.6712 -21.3284
rtoes -27.7323
lfemur -35.8781 -0.621284 -28.9469
ltibia 73.8397
lfoot -6.87294 33.5491
ltoes -8.54769
253
root 2.36156 13.7819 -9.09195 -177.103 4.06203 -183.37
lowerback 8.53941 0.0334725 -5.35596
upperback 5.47861 0.226212 -0.980586
thorax 0.910085 0.226969 1.97758
lowerneck -31.4992 -0.98877 3.63
upperneck 42.5625 0.8024 -1.69592
head 24.4602 1.7326 -0.9673
rclavicle -1.67973e-014 -7.55382e-015
rhumerus -42.9335 -17.1914 -80.9717
rradius 54.6221
rwrist 4.01118
rhand -8.15581 -17.9542
rfingers 7.12502
rthumb 17.7589 -47.1632
lclavicle -1.67973e-014 -7.55382e-015
lhumerus -47.0471 -6.22235 82.6798
lradius 62.2499
lwrist -20.3039
lhand -14.7275 17.9085
lfingers 7.12502
lthumb 11.4276 47.5771
rfemur -38.6195 1.78566 19.9065
rtibia 83.7313
rfoot -13.1277 -21.4533
rtoes -27.9816
lfemur -35.9808 -0.759447 -28.8306
ltibia 75.4851
lfoot -6.28177 33.6252
ltoes -9.51593
